<svg xmlns="http://www.w3.org/2000/svg" width="1150" height="397" viewBox="0 0 1150 397">
<defs>
  <marker id="arrow" markerWidth="10" markerHeight="10" refX="9" refY="3" orient="auto" markerUnits="strokeWidth">
    <path d="M0,0 L0,6 L9,3 z" fill="#334155" />
  </marker>
</defs>
<style>
  .box { fill: #ffffff; stroke: #334155; stroke-width: 1.4; }
  .header { fill: #e0f2fe; stroke: #334155; stroke-width: 1.4; }
  .interface { fill: #dcfce7; }
  .abstract { fill: #fef3c7; }
  .title { font: 600 15px "Segoe UI", Arial, sans-serif; fill: #0f172a; }
  .stereo { font: 12px "Segoe UI", Arial, sans-serif; fill: #475569; }
  .member { font: 12px Consolas, "Courier New", monospace; fill: #1e293b; }
  .edge { fill: none; stroke: #334155; stroke-width: 1.35; }
  .edge.dashed { stroke-dasharray: 6 5; }
  .label { font: 12px "Segoe UI", Arial, sans-serif; fill: #0f172a; }
  .label-bg { fill: #ffffff; opacity: 0.9; }
  .note { fill: #fff7ed; stroke: #f97316; stroke-width: 1.2; }
  .note-text { font: 12px "Segoe UI", Arial, sans-serif; fill: #7c2d12; }
</style>
<rect x="0" y="0" width="100%" height="100%" fill="#f8fafc"/>
<line class="edge" x1="420.0" y1="102.5" x2="360.0" y2="102.5" marker-end="url(#arrow)"/>
<line class="edge dashed" x1="205.0" y1="225.0" x2="205.0" y2="146.5" marker-end="url(#arrow)"/>
<line class="edge" x1="360.0" y1="286.0" x2="790.0" y2="286.0" marker-end="url(#arrow)"/>
<line class="edge dashed" x1="360.0" y1="102.5" x2="790.0" y2="102.5" marker-end="url(#arrow)"/>
<line class="edge dashed" x1="790.0" y1="286.0" x2="730.0" y2="286.0" marker-end="url(#arrow)"/>
<line class="edge dashed" x1="360.0" y1="286.0" x2="790.0" y2="102.5" marker-end="url(#arrow)"/>
<line class="edge dashed" x1="360.0" y1="286.0" x2="420.0" y2="286.0" marker-end="url(#arrow)"/>
<rect class="box" x="50.0" y="58.5" width="310.0" height="88.0" rx="8"/>
<rect class="header interface" x="50.0" y="58.5" width="310.0" height="44" rx="8"/>
<line x1="50.0" y1="102.5" x2="360.0" y2="102.5" stroke="#334155" stroke-width="1.2"/>
<text class="stereo" text-anchor="middle" x="205.0" y="73.5"><tspan x="205.0" dy="0">&lt;&lt;interface&gt;&gt;</tspan></text>
<text class="title" text-anchor="middle" x="205.0" y="90.5"><tspan x="205.0" dy="0">IPaymentGateway</tspan></text>
<text class="member" text-anchor="start" x="64.0" y="120.5"><tspan x="64.0" dy="0">+Pay(amount: decimal, currency:</tspan><tspan x="64.0" dy="17">string): PaymentResult</tspan></text>
<rect class="box" x="420.0" y="58.5" width="310.0" height="88.0" rx="8"/>
<rect class="header" x="420.0" y="58.5" width="310.0" height="44" rx="8"/>
<line x1="420.0" y1="102.5" x2="730.0" y2="102.5" stroke="#334155" stroke-width="1.2"/>
<text class="stereo" text-anchor="middle" x="575.0" y="73.5"><tspan x="575.0" dy="0">&lt;&lt;class&gt;&gt;</tspan></text>
<text class="title" text-anchor="middle" x="575.0" y="90.5"><tspan x="575.0" dy="0">CheckoutService</tspan></text>
<text class="member" text-anchor="start" x="434.0" y="120.5"><tspan x="434.0" dy="0">-paymentGateway: IPaymentGateway</tspan><tspan x="434.0" dy="17">+Checkout(totalAmount: decimal): void</tspan></text>
<rect class="box" x="790.0" y="50.0" width="310.0" height="105.0" rx="8"/>
<rect class="header" x="790.0" y="50.0" width="310.0" height="44" rx="8"/>
<line x1="790.0" y1="94.0" x2="1100.0" y2="94.0" stroke="#334155" stroke-width="1.2"/>
<text class="stereo" text-anchor="middle" x="945.0" y="65.0"><tspan x="945.0" dy="0">&lt;&lt;class&gt;&gt;</tspan></text>
<text class="title" text-anchor="middle" x="945.0" y="82.0"><tspan x="945.0" dy="0">PaymentResult</tspan></text>
<text class="member" text-anchor="start" x="804.0" y="112.0"><tspan x="804.0" dy="0">+Success: bool</tspan><tspan x="804.0" dy="17">+TransactionId: string</tspan><tspan x="804.0" dy="17">+Message: string</tspan></text>
<rect class="box" x="50.0" y="225.0" width="310.0" height="122.0" rx="8"/>
<rect class="header" x="50.0" y="225.0" width="310.0" height="44" rx="8"/>
<line x1="50.0" y1="269.0" x2="360.0" y2="269.0" stroke="#334155" stroke-width="1.2"/>
<text class="stereo" text-anchor="middle" x="205.0" y="240.0"><tspan x="205.0" dy="0">&lt;&lt;class&gt;&gt;</tspan></text>
<text class="title" text-anchor="middle" x="205.0" y="257.0"><tspan x="205.0" dy="0">StripePaymentAdapter</tspan></text>
<text class="member" text-anchor="start" x="64.0" y="287.0"><tspan x="64.0" dy="0">-stripeService: StripeService</tspan><tspan x="64.0" dy="17">+Pay(amount: decimal, currency:</tspan><tspan x="64.0" dy="17">string): PaymentResult</tspan><tspan x="64.0" dy="17">-ConvertToCents(amount: decimal): long</tspan></text>
<rect class="box" x="420.0" y="233.5" width="310.0" height="105.0" rx="8"/>
<rect class="header" x="420.0" y="233.5" width="310.0" height="44" rx="8"/>
<line x1="420.0" y1="277.5" x2="730.0" y2="277.5" stroke="#334155" stroke-width="1.2"/>
<text class="stereo" text-anchor="middle" x="575.0" y="248.5"><tspan x="575.0" dy="0">&lt;&lt;class&gt;&gt;</tspan></text>
<text class="title" text-anchor="middle" x="575.0" y="265.5"><tspan x="575.0" dy="0">StripeResponse</tspan></text>
<text class="member" text-anchor="start" x="434.0" y="295.5"><tspan x="434.0" dy="0">+IsSuccess: bool</tspan><tspan x="434.0" dy="17">+TransactionId: string</tspan><tspan x="434.0" dy="17">+Message: string</tspan></text>
<rect class="box" x="790.0" y="242.0" width="310.0" height="88.0" rx="8"/>
<rect class="header" x="790.0" y="242.0" width="310.0" height="44" rx="8"/>
<line x1="790.0" y1="286.0" x2="1100.0" y2="286.0" stroke="#334155" stroke-width="1.2"/>
<text class="stereo" text-anchor="middle" x="945.0" y="257.0"><tspan x="945.0" dy="0">&lt;&lt;class&gt;&gt;</tspan></text>
<text class="title" text-anchor="middle" x="945.0" y="274.0"><tspan x="945.0" dy="0">StripeService</tspan></text>
<text class="member" text-anchor="start" x="804.0" y="304.0"><tspan x="804.0" dy="0">+Charge(amountInCents: long,</tspan><tspan x="804.0" dy="17">currencyCode: string): StripeResponse</tspan></text>
</svg>
