<svg xmlns="http://www.w3.org/2000/svg" width="1520" height="465" viewBox="0 0 1520 465">
<defs>
  <marker id="arrow" markerWidth="10" markerHeight="10" refX="9" refY="3" orient="auto" markerUnits="strokeWidth">
    <path d="M0,0 L0,6 L9,3 z" fill="#334155" />
  </marker>
</defs>
<style>
  .box { fill: #ffffff; stroke: #334155; stroke-width: 1.4; }
  .header { fill: #e0f2fe; stroke: #334155; stroke-width: 1.4; }
  .interface { fill: #dcfce7; }
  .abstract { fill: #fef3c7; }
  .title { font: 600 15px "Segoe UI", Arial, sans-serif; fill: #0f172a; }
  .stereo { font: 12px "Segoe UI", Arial, sans-serif; fill: #475569; }
  .member { font: 12px Consolas, "Courier New", monospace; fill: #1e293b; }
  .edge { fill: none; stroke: #334155; stroke-width: 1.35; }
  .edge.dashed { stroke-dasharray: 6 5; }
  .label { font: 12px "Segoe UI", Arial, sans-serif; fill: #0f172a; }
  .label-bg { fill: #ffffff; opacity: 0.9; }
  .note { fill: #fff7ed; stroke: #f97316; stroke-width: 1.2; }
  .note-text { font: 12px "Segoe UI", Arial, sans-serif; fill: #7c2d12; }
</style>
<rect x="0" y="0" width="100%" height="100%" fill="#f8fafc"/>
<line class="edge dashed" x1="360.0" y1="119.5" x2="420.0" y2="119.5" marker-end="url(#arrow)"/>
<line class="edge" x1="420.0" y1="337.0" x2="360.0" y2="119.5" marker-end="url(#arrow)"/>
<line class="edge" x1="790.0" y1="119.5" x2="360.0" y2="119.5" marker-end="url(#arrow)"/>
<line class="edge" x1="1160.0" y1="119.5" x2="360.0" y2="119.5" marker-end="url(#arrow)"/>
<line class="edge" x1="1160.0" y1="337.0" x2="360.0" y2="119.5" marker-end="url(#arrow)"/>
<line class="edge" x1="205.0" y1="301.5" x2="205.0" y2="189.0" marker-end="url(#arrow)"/>
<line class="edge" x1="360.0" y1="119.5" x2="420.0" y2="119.5" marker-end="url(#arrow)"/>
<rect class="label-bg" x="308.0" y="97.5" width="164" height="24"/>
<text class="label" text-anchor="middle" x="390.0" y="113.5"><tspan x="390.0" dy="0">next</tspan></text>
<line class="edge" x1="730.0" y1="337.0" x2="790.0" y2="337.0" marker-end="url(#arrow)"/>
<line class="edge" x1="945.0" y1="155.0" x2="945.0" y2="259.0" marker-end="url(#arrow)"/>
<line class="edge" x1="1160.0" y1="119.5" x2="1100.0" y2="337.0" marker-end="url(#arrow)"/>
<line class="edge" x1="1160.0" y1="337.0" x2="1100.0" y2="337.0" marker-end="url(#arrow)"/>
<line class="edge" x1="360.0" y1="337.0" x2="790.0" y2="337.0" marker-end="url(#arrow)"/>
<rect class="box" x="50.0" y="50.0" width="310.0" height="139.0" rx="8"/>
<rect class="header abstract" x="50.0" y="50.0" width="310.0" height="44" rx="8"/>
<line x1="50.0" y1="94.0" x2="360.0" y2="94.0" stroke="#334155" stroke-width="1.2"/>
<text class="stereo" text-anchor="middle" x="205.0" y="65.0"><tspan x="205.0" dy="0">&lt;&lt;abstract&gt;&gt;</tspan></text>
<text class="title" text-anchor="middle" x="205.0" y="82.0"><tspan x="205.0" dy="0">BaseRequestHandler</tspan></text>
<text class="member" text-anchor="start" x="64.0" y="112.0"><tspan x="64.0" dy="0">-next: IRequestHandler</tspan><tspan x="64.0" dy="17">+SetNext(next: IRequestHandler):</tspan><tspan x="64.0" dy="17">IRequestHandler</tspan><tspan x="64.0" dy="17">+HandleAsync(context: RequestContext):</tspan><tspan x="64.0" dy="17">Task</tspan></text>
<rect class="box" x="420.0" y="58.5" width="310.0" height="122.0" rx="8"/>
<rect class="header interface" x="420.0" y="58.5" width="310.0" height="44" rx="8"/>
<line x1="420.0" y1="102.5" x2="730.0" y2="102.5" stroke="#334155" stroke-width="1.2"/>
<text class="stereo" text-anchor="middle" x="575.0" y="73.5"><tspan x="575.0" dy="0">&lt;&lt;interface&gt;&gt;</tspan></text>
<text class="title" text-anchor="middle" x="575.0" y="90.5"><tspan x="575.0" dy="0">IRequestHandler</tspan></text>
<text class="member" text-anchor="start" x="434.0" y="120.5"><tspan x="434.0" dy="0">+SetNext(next: IRequestHandler):</tspan><tspan x="434.0" dy="17">IRequestHandler</tspan><tspan x="434.0" dy="17">+HandleAsync(context: RequestContext):</tspan><tspan x="434.0" dy="17">Task</tspan></text>
<rect class="box" x="790.0" y="84.0" width="310.0" height="71.0" rx="8"/>
<rect class="header" x="790.0" y="84.0" width="310.0" height="44" rx="8"/>
<line x1="790.0" y1="128.0" x2="1100.0" y2="128.0" stroke="#334155" stroke-width="1.2"/>
<text class="stereo" text-anchor="middle" x="945.0" y="99.0"><tspan x="945.0" dy="0">&lt;&lt;class&gt;&gt;</tspan></text>
<text class="title" text-anchor="middle" x="945.0" y="116.0"><tspan x="945.0" dy="0">AuthenticationHandler</tspan></text>
<text class="member" text-anchor="start" x="804.0" y="146.0"><tspan x="804.0" dy="0"> </tspan></text>
<rect class="box" x="1160.0" y="84.0" width="310.0" height="71.0" rx="8"/>
<rect class="header" x="1160.0" y="84.0" width="310.0" height="44" rx="8"/>
<line x1="1160.0" y1="128.0" x2="1470.0" y2="128.0" stroke="#334155" stroke-width="1.2"/>
<text class="stereo" text-anchor="middle" x="1315.0" y="99.0"><tspan x="1315.0" dy="0">&lt;&lt;class&gt;&gt;</tspan></text>
<text class="title" text-anchor="middle" x="1315.0" y="116.0"><tspan x="1315.0" dy="0">AuthorizationHandler</tspan></text>
<text class="member" text-anchor="start" x="1174.0" y="146.0"><tspan x="1174.0" dy="0"> </tspan></text>
<rect class="box" x="50.0" y="301.5" width="310.0" height="71.0" rx="8"/>
<rect class="header" x="50.0" y="301.5" width="310.0" height="44" rx="8"/>
<line x1="50.0" y1="345.5" x2="360.0" y2="345.5" stroke="#334155" stroke-width="1.2"/>
<text class="stereo" text-anchor="middle" x="205.0" y="316.5"><tspan x="205.0" dy="0">&lt;&lt;class&gt;&gt;</tspan></text>
<text class="title" text-anchor="middle" x="205.0" y="333.5"><tspan x="205.0" dy="0">BusinessHandler</tspan></text>
<text class="member" text-anchor="start" x="64.0" y="363.5"><tspan x="64.0" dy="0"> </tspan></text>
<rect class="box" x="420.0" y="301.5" width="310.0" height="71.0" rx="8"/>
<rect class="header" x="420.0" y="301.5" width="310.0" height="44" rx="8"/>
<line x1="420.0" y1="345.5" x2="730.0" y2="345.5" stroke="#334155" stroke-width="1.2"/>
<text class="stereo" text-anchor="middle" x="575.0" y="316.5"><tspan x="575.0" dy="0">&lt;&lt;class&gt;&gt;</tspan></text>
<text class="title" text-anchor="middle" x="575.0" y="333.5"><tspan x="575.0" dy="0">LoggingHandler</tspan></text>
<text class="member" text-anchor="start" x="434.0" y="363.5"><tspan x="434.0" dy="0"> </tspan></text>
<rect class="box" x="790.0" y="259.0" width="310.0" height="156.0" rx="8"/>
<rect class="header" x="790.0" y="259.0" width="310.0" height="44" rx="8"/>
<line x1="790.0" y1="303.0" x2="1100.0" y2="303.0" stroke="#334155" stroke-width="1.2"/>
<text class="stereo" text-anchor="middle" x="945.0" y="274.0"><tspan x="945.0" dy="0">&lt;&lt;class&gt;&gt;</tspan></text>
<text class="title" text-anchor="middle" x="945.0" y="291.0"><tspan x="945.0" dy="0">RequestContext</tspan></text>
<text class="member" text-anchor="start" x="804.0" y="321.0"><tspan x="804.0" dy="0">+UserName: string</tspan><tspan x="804.0" dy="17">+IsAuthenticated: bool</tspan><tspan x="804.0" dy="17">+HasPermission: bool</tspan><tspan x="804.0" dy="17">+Payload: string</tspan><tspan x="804.0" dy="17">+IsRejected: bool</tspan><tspan x="804.0" dy="17">+ErrorMessage: string</tspan></text>
<rect class="box" x="1160.0" y="301.5" width="310.0" height="71.0" rx="8"/>
<rect class="header" x="1160.0" y="301.5" width="310.0" height="44" rx="8"/>
<line x1="1160.0" y1="345.5" x2="1470.0" y2="345.5" stroke="#334155" stroke-width="1.2"/>
<text class="stereo" text-anchor="middle" x="1315.0" y="316.5"><tspan x="1315.0" dy="0">&lt;&lt;class&gt;&gt;</tspan></text>
<text class="title" text-anchor="middle" x="1315.0" y="333.5"><tspan x="1315.0" dy="0">ValidationHandler</tspan></text>
<text class="member" text-anchor="start" x="1174.0" y="363.5"><tspan x="1174.0" dy="0"> </tspan></text>
</svg>
