<svg xmlns="http://www.w3.org/2000/svg" width="1150" height="431" viewBox="0 0 1150 431">
<defs>
  <marker id="arrow" markerWidth="10" markerHeight="10" refX="9" refY="3" orient="auto" markerUnits="strokeWidth">
    <path d="M0,0 L0,6 L9,3 z" fill="#334155" />
  </marker>
</defs>
<style>
  .box { fill: #ffffff; stroke: #334155; stroke-width: 1.4; }
  .header { fill: #e0f2fe; stroke: #334155; stroke-width: 1.4; }
  .interface { fill: #dcfce7; }
  .abstract { fill: #fef3c7; }
  .title { font: 600 15px "Segoe UI", Arial, sans-serif; fill: #0f172a; }
  .stereo { font: 12px "Segoe UI", Arial, sans-serif; fill: #475569; }
  .member { font: 12px Consolas, "Courier New", monospace; fill: #1e293b; }
  .edge { fill: none; stroke: #334155; stroke-width: 1.35; }
  .edge.dashed { stroke-dasharray: 6 5; }
  .label { font: 12px "Segoe UI", Arial, sans-serif; fill: #0f172a; }
  .label-bg { fill: #ffffff; opacity: 0.9; }
  .note { fill: #fff7ed; stroke: #f97316; stroke-width: 1.2; }
  .note-text { font: 12px "Segoe UI", Arial, sans-serif; fill: #7c2d12; }
</style>
<rect x="0" y="0" width="100%" height="100%" fill="#f8fafc"/>
<line class="edge dashed" x1="790.0" y1="136.5" x2="360.0" y2="136.5" marker-end="url(#arrow)"/>
<line class="edge" x1="790.0" y1="136.5" x2="360.0" y2="337.0"/>
<line class="edge" x1="420.0" y1="136.5" x2="360.0" y2="136.5" marker-end="url(#arrow)"/>
<line class="edge" x1="575.0" y1="301.5" x2="575.0" y2="206.0" marker-end="url(#arrow)"/>
<rect class="box" x="50.0" y="101.0" width="310.0" height="71.0" rx="8"/>
<rect class="header interface" x="50.0" y="101.0" width="310.0" height="44" rx="8"/>
<line x1="50.0" y1="145.0" x2="360.0" y2="145.0" stroke="#334155" stroke-width="1.2"/>
<text class="stereo" text-anchor="middle" x="205.0" y="116.0"><tspan x="205.0" dy="0">&lt;&lt;interface&gt;&gt;</tspan></text>
<text class="title" text-anchor="middle" x="205.0" y="133.0"><tspan x="205.0" dy="0">IEnemyPrototype</tspan></text>
<text class="member" text-anchor="start" x="64.0" y="163.0"><tspan x="64.0" dy="0">+Clone(): IEnemyPrototype</tspan></text>
<rect class="box" x="420.0" y="67.0" width="310.0" height="139.0" rx="8"/>
<rect class="header" x="420.0" y="67.0" width="310.0" height="44" rx="8"/>
<line x1="420.0" y1="111.0" x2="730.0" y2="111.0" stroke="#334155" stroke-width="1.2"/>
<text class="stereo" text-anchor="middle" x="575.0" y="82.0"><tspan x="575.0" dy="0">&lt;&lt;class&gt;&gt;</tspan></text>
<text class="title" text-anchor="middle" x="575.0" y="99.0"><tspan x="575.0" dy="0">EnemyRegistry</tspan></text>
<text class="member" text-anchor="start" x="434.0" y="129.0"><tspan x="434.0" dy="0">-prototypes: Dictionary&lt;string,</tspan><tspan x="434.0" dy="17">IEnemyPrototype&gt;</tspan><tspan x="434.0" dy="17">+Register(key: string, prototype:</tspan><tspan x="434.0" dy="17">IEnemyPrototype): void</tspan><tspan x="434.0" dy="17">+Create(key: string): Enemy</tspan></text>
<rect class="box" x="790.0" y="50.0" width="310.0" height="173.0" rx="8"/>
<rect class="header" x="790.0" y="50.0" width="310.0" height="44" rx="8"/>
<line x1="790.0" y1="94.0" x2="1100.0" y2="94.0" stroke="#334155" stroke-width="1.2"/>
<text class="stereo" text-anchor="middle" x="945.0" y="65.0"><tspan x="945.0" dy="0">&lt;&lt;class&gt;&gt;</tspan></text>
<text class="title" text-anchor="middle" x="945.0" y="82.0"><tspan x="945.0" dy="0">Enemy</tspan></text>
<text class="member" text-anchor="start" x="804.0" y="112.0"><tspan x="804.0" dy="0">+Name: string</tspan><tspan x="804.0" dy="17">+Health: int</tspan><tspan x="804.0" dy="17">+Damage: int</tspan><tspan x="804.0" dy="17">+Level: int</tspan><tspan x="804.0" dy="17">+Position: Position</tspan><tspan x="804.0" dy="17">+Skills: List&lt;string&gt;</tspan><tspan x="804.0" dy="17">+Clone(): IEnemyPrototype</tspan></text>
<rect class="box" x="50.0" y="293.0" width="310.0" height="88.0" rx="8"/>
<rect class="header" x="50.0" y="293.0" width="310.0" height="44" rx="8"/>
<line x1="50.0" y1="337.0" x2="360.0" y2="337.0" stroke="#334155" stroke-width="1.2"/>
<text class="stereo" text-anchor="middle" x="205.0" y="308.0"><tspan x="205.0" dy="0">&lt;&lt;class&gt;&gt;</tspan></text>
<text class="title" text-anchor="middle" x="205.0" y="325.0"><tspan x="205.0" dy="0">Position</tspan></text>
<text class="member" text-anchor="start" x="64.0" y="355.0"><tspan x="64.0" dy="0">+X: int</tspan><tspan x="64.0" dy="17">+Y: int</tspan></text>
<rect class="box" x="420.0" y="301.5" width="310.0" height="71.0" rx="8"/>
<rect class="header" x="420.0" y="301.5" width="310.0" height="44" rx="8"/>
<line x1="420.0" y1="345.5" x2="730.0" y2="345.5" stroke="#334155" stroke-width="1.2"/>
<text class="stereo" text-anchor="middle" x="575.0" y="316.5"><tspan x="575.0" dy="0">&lt;&lt;class&gt;&gt;</tspan></text>
<text class="title" text-anchor="middle" x="575.0" y="333.5"><tspan x="575.0" dy="0">Program</tspan></text>
<text class="member" text-anchor="start" x="434.0" y="363.5"><tspan x="434.0" dy="0">+Main(): void</tspan></text>
</svg>
