<svg xmlns="http://www.w3.org/2000/svg" width="1150" height="363" viewBox="0 0 1150 363">
<defs>
  <marker id="arrow" markerWidth="10" markerHeight="10" refX="9" refY="3" orient="auto" markerUnits="strokeWidth">
    <path d="M0,0 L0,6 L9,3 z" fill="#334155" />
  </marker>
</defs>
<style>
  .box { fill: #ffffff; stroke: #334155; stroke-width: 1.4; }
  .header { fill: #e0f2fe; stroke: #334155; stroke-width: 1.4; }
  .interface { fill: #dcfce7; }
  .abstract { fill: #fef3c7; }
  .title { font: 600 15px "Segoe UI", Arial, sans-serif; fill: #0f172a; }
  .stereo { font: 12px "Segoe UI", Arial, sans-serif; fill: #475569; }
  .member { font: 12px Consolas, "Courier New", monospace; fill: #1e293b; }
  .edge { fill: none; stroke: #334155; stroke-width: 1.35; }
  .edge.dashed { stroke-dasharray: 6 5; }
  .label { font: 12px "Segoe UI", Arial, sans-serif; fill: #0f172a; }
  .label-bg { fill: #ffffff; opacity: 0.9; }
  .note { fill: #fff7ed; stroke: #f97316; stroke-width: 1.2; }
  .note-text { font: 12px "Segoe UI", Arial, sans-serif; fill: #7c2d12; }
</style>
<rect x="0" y="0" width="100%" height="100%" fill="#f8fafc"/>
<line class="edge" x1="360.0" y1="94.0" x2="420.0" y2="260.5" marker-end="url(#arrow)"/>
<rect class="label-bg" x="308.0" y="155.2" width="164" height="24"/>
<text class="label" text-anchor="middle" x="390.0" y="171.2"><tspan x="390.0" dy="0">creates/uses</tspan></text>
<line class="edge" x1="575.0" y1="208.0" x2="575.0" y2="138.0" marker-end="url(#arrow)"/>
<rect class="label-bg" x="493.0" y="151.0" width="164" height="24"/>
<text class="label" text-anchor="middle" x="575.0" y="167.0"><tspan x="575.0" dy="0">uses</tspan></text>
<line class="edge dashed" x1="360.0" y1="260.5" x2="420.0" y2="94.0" marker-end="url(#arrow)"/>
<line class="edge" x1="790.0" y1="94.0" x2="730.0" y2="94.0" marker-end="url(#arrow)"/>
<rect class="label-bg" x="678.0" y="72.0" width="164" height="24"/>
<text class="label" text-anchor="middle" x="760.0" y="88.0"><tspan x="760.0" dy="0">returns</tspan></text>
<line class="edge" x1="360.0" y1="94.0" x2="790.0" y2="94.0" marker-end="url(#arrow)"/>
<rect class="label-bg" x="493.0" y="72.0" width="164" height="24"/>
<text class="label" text-anchor="middle" x="575.0" y="88.0"><tspan x="575.0" dy="0">requests</tspan></text>
<rect class="box" x="50.0" y="58.5" width="310.0" height="71.0" rx="8"/>
<rect class="header" x="50.0" y="58.5" width="310.0" height="44" rx="8"/>
<line x1="50.0" y1="102.5" x2="360.0" y2="102.5" stroke="#334155" stroke-width="1.2"/>
<text class="stereo" text-anchor="middle" x="205.0" y="73.5"><tspan x="205.0" dy="0">&lt;&lt;class&gt;&gt;</tspan></text>
<text class="title" text-anchor="middle" x="205.0" y="90.5"><tspan x="205.0" dy="0">Client</tspan></text>
<text class="member" text-anchor="start" x="64.0" y="120.5"><tspan x="64.0" dy="0"> </tspan></text>
<rect class="box" x="420.0" y="50.0" width="310.0" height="88.0" rx="8"/>
<rect class="header interface" x="420.0" y="50.0" width="310.0" height="44" rx="8"/>
<line x1="420.0" y1="94.0" x2="730.0" y2="94.0" stroke="#334155" stroke-width="1.2"/>
<text class="stereo" text-anchor="middle" x="575.0" y="65.0"><tspan x="575.0" dy="0">&lt;&lt;interface&gt;&gt;</tspan></text>
<text class="title" text-anchor="middle" x="575.0" y="82.0"><tspan x="575.0" dy="0">Flyweight</tspan></text>
<text class="member" text-anchor="start" x="434.0" y="112.0"><tspan x="434.0" dy="0">+ Operation(extrinsicState: string):</tspan><tspan x="434.0" dy="17">void</tspan></text>
<rect class="box" x="790.0" y="50.0" width="310.0" height="88.0" rx="8"/>
<rect class="header" x="790.0" y="50.0" width="310.0" height="44" rx="8"/>
<line x1="790.0" y1="94.0" x2="1100.0" y2="94.0" stroke="#334155" stroke-width="1.2"/>
<text class="stereo" text-anchor="middle" x="945.0" y="65.0"><tspan x="945.0" dy="0">&lt;&lt;class&gt;&gt;</tspan></text>
<text class="title" text-anchor="middle" x="945.0" y="82.0"><tspan x="945.0" dy="0">FlyweightFactory</tspan></text>
<text class="member" text-anchor="start" x="804.0" y="112.0"><tspan x="804.0" dy="0">- cache: Dictionary&lt;string, Flyweight&gt;</tspan><tspan x="804.0" dy="17">+ GetFlyweight(key: string): Flyweight</tspan></text>
<rect class="box" x="50.0" y="208.0" width="310.0" height="105.0" rx="8"/>
<rect class="header" x="50.0" y="208.0" width="310.0" height="44" rx="8"/>
<line x1="50.0" y1="252.0" x2="360.0" y2="252.0" stroke="#334155" stroke-width="1.2"/>
<text class="stereo" text-anchor="middle" x="205.0" y="223.0"><tspan x="205.0" dy="0">&lt;&lt;class&gt;&gt;</tspan></text>
<text class="title" text-anchor="middle" x="205.0" y="240.0"><tspan x="205.0" dy="0">ConcreteFlyweight</tspan></text>
<text class="member" text-anchor="start" x="64.0" y="270.0"><tspan x="64.0" dy="0">- intrinsicState: string</tspan><tspan x="64.0" dy="17">+ Operation(extrinsicState: string):</tspan><tspan x="64.0" dy="17">void</tspan></text>
<rect class="box" x="420.0" y="208.0" width="310.0" height="105.0" rx="8"/>
<rect class="header" x="420.0" y="208.0" width="310.0" height="44" rx="8"/>
<line x1="420.0" y1="252.0" x2="730.0" y2="252.0" stroke="#334155" stroke-width="1.2"/>
<text class="stereo" text-anchor="middle" x="575.0" y="223.0"><tspan x="575.0" dy="0">&lt;&lt;class&gt;&gt;</tspan></text>
<text class="title" text-anchor="middle" x="575.0" y="240.0"><tspan x="575.0" dy="0">Context</tspan></text>
<text class="member" text-anchor="start" x="434.0" y="270.0"><tspan x="434.0" dy="0">- uniqueState: string</tspan><tspan x="434.0" dy="17">- flyweight: Flyweight</tspan><tspan x="434.0" dy="17">+ Operation(): void</tspan></text>
</svg>
