<svg xmlns="http://www.w3.org/2000/svg" width="780" height="431" viewBox="0 0 780 431">
<defs>
  <marker id="arrow" markerWidth="10" markerHeight="10" refX="9" refY="3" orient="auto" markerUnits="strokeWidth">
    <path d="M0,0 L0,6 L9,3 z" fill="#334155" />
  </marker>
</defs>
<style>
  .box { fill: #ffffff; stroke: #334155; stroke-width: 1.4; }
  .header { fill: #e0f2fe; stroke: #334155; stroke-width: 1.4; }
  .interface { fill: #dcfce7; }
  .abstract { fill: #fef3c7; }
  .title { font: 600 15px "Segoe UI", Arial, sans-serif; fill: #0f172a; }
  .stereo { font: 12px "Segoe UI", Arial, sans-serif; fill: #475569; }
  .member { font: 12px Consolas, "Courier New", monospace; fill: #1e293b; }
  .edge { fill: none; stroke: #334155; stroke-width: 1.35; }
  .edge.dashed { stroke-dasharray: 6 5; }
  .label { font: 12px "Segoe UI", Arial, sans-serif; fill: #0f172a; }
  .label-bg { fill: #ffffff; opacity: 0.9; }
  .note { fill: #fff7ed; stroke: #f97316; stroke-width: 1.2; }
  .note-text { font: 12px "Segoe UI", Arial, sans-serif; fill: #7c2d12; }
</style>
<rect x="0" y="0" width="100%" height="100%" fill="#f8fafc"/>
<line class="edge" x1="360.0" y1="119.5" x2="420.0" y2="119.5"/>
<rect class="label-bg" x="308.0" y="97.5" width="164" height="24"/>
<text class="label" text-anchor="middle" x="390.0" y="113.5"><tspan x="390.0" dy="0">stores</tspan></text>
<line class="edge" x1="205.0" y1="189.0" x2="205.0" y2="259.0" marker-end="url(#arrow)"/>
<rect class="label-bg" x="123.0" y="202.0" width="164" height="24"/>
<text class="label" text-anchor="middle" x="205.0" y="218.0"><tspan x="205.0" dy="0">asks save/restore</tspan></text>
<line class="edge dashed" x1="360.0" y1="320.0" x2="420.0" y2="119.5" marker-end="url(#arrow)"/>
<rect class="label-bg" x="308.0" y="197.8" width="164" height="24"/>
<text class="label" text-anchor="middle" x="390.0" y="213.8"><tspan x="390.0" dy="0">creates/restores</tspan></text>
<rect class="box" x="50.0" y="50.0" width="310.0" height="139.0" rx="8"/>
<rect class="header" x="50.0" y="50.0" width="310.0" height="44" rx="8"/>
<line x1="50.0" y1="94.0" x2="360.0" y2="94.0" stroke="#334155" stroke-width="1.2"/>
<text class="stereo" text-anchor="middle" x="205.0" y="65.0"><tspan x="205.0" dy="0">&lt;&lt;class&gt;&gt;</tspan></text>
<text class="title" text-anchor="middle" x="205.0" y="82.0"><tspan x="205.0" dy="0">Caretaker</tspan></text>
<text class="member" text-anchor="start" x="64.0" y="112.0"><tspan x="64.0" dy="0">- history: Stack&lt;Memento&gt;</tspan><tspan x="64.0" dy="17">- originator: Originator</tspan><tspan x="64.0" dy="17">+ Backup()</tspan><tspan x="64.0" dy="17">+ Undo()</tspan><tspan x="64.0" dy="17">+ ShowHistory()</tspan></text>
<rect class="box" x="420.0" y="58.5" width="310.0" height="122.0" rx="8"/>
<rect class="header" x="420.0" y="58.5" width="310.0" height="44" rx="8"/>
<line x1="420.0" y1="102.5" x2="730.0" y2="102.5" stroke="#334155" stroke-width="1.2"/>
<text class="stereo" text-anchor="middle" x="575.0" y="73.5"><tspan x="575.0" dy="0">&lt;&lt;class&gt;&gt;</tspan></text>
<text class="title" text-anchor="middle" x="575.0" y="90.5"><tspan x="575.0" dy="0">Memento</tspan></text>
<text class="member" text-anchor="start" x="434.0" y="120.5"><tspan x="434.0" dy="0">- state: string</tspan><tspan x="434.0" dy="17">- createdAt: DateTime</tspan><tspan x="434.0" dy="17">+ GetName(): string</tspan><tspan x="434.0" dy="17">+ GetState(): string</tspan></text>
<rect class="box" x="50.0" y="259.0" width="310.0" height="122.0" rx="8"/>
<rect class="header" x="50.0" y="259.0" width="310.0" height="44" rx="8"/>
<line x1="50.0" y1="303.0" x2="360.0" y2="303.0" stroke="#334155" stroke-width="1.2"/>
<text class="stereo" text-anchor="middle" x="205.0" y="274.0"><tspan x="205.0" dy="0">&lt;&lt;class&gt;&gt;</tspan></text>
<text class="title" text-anchor="middle" x="205.0" y="291.0"><tspan x="205.0" dy="0">Originator</tspan></text>
<text class="member" text-anchor="start" x="64.0" y="321.0"><tspan x="64.0" dy="0">- state: string</tspan><tspan x="64.0" dy="17">+ SetState(state: string)</tspan><tspan x="64.0" dy="17">+ Save(): Memento</tspan><tspan x="64.0" dy="17">+ Restore(memento: Memento)</tspan></text>
</svg>
